# xmcd CD database file
# Generated: Thu Dec 25 12:41:41 2003 by KSCD
# 
# Track frame offsets:
#       150
#       10968
#       22150
#       30640
#       41008
#       51526
#       63861
#       74686
#       85017
#       97337
#       109105
#       118924
#       130158
#       141443
#       155104
#       166576
#       181190
#       192373
#       203426
#       212640
#       224274
#
# Disc length: 3124 seconds
#
# Revision: 1
# Processed by: cddbd v1.4PL0 Copyright (c) Steve Scherf et al.
# Submitted via: Kscd 1.3.3
#
DISCID=3b0c3215
DTITLE=Various Artist - Original Jamaican Sound System Style: 21 R'n'B Scorchers
DYEAR=1900
DGENRE=
TTITLE0=Calvin Boze - Safronia B
TTITLE1=Dave Bartholomew - Monkey Speaks His Mind
TTITLE2=Ernie Freeman - Live It Up
TTITLE3=Dodgers - Let's Make a Whole Lot of Love
TTITLE4=Shirley and Lee - I'm Gone
TTITLE5=Fats Domino - I'm in the Mood for Love
TTITLE6=Thurston Harris - Little Bitty Pretty One
TTITLE7=Little Anthony - Tears on My Pillow
TTITLE8=Joe Lutchers - Strator-Cruiser
TTITLE9=Jimmie F. Rodgers - Secretly
TTITLE10=Faye Adams - Someone Like You
TTITLE11=James 'Sugarboy' Crawford - It's Over
TTITLE12=Gene and Eunice - The Vow
TTITLE13=Ray Johnson - If You Don't Want Me Baby
TTITLE14=Lynn Hope - Blue Moon
TTITLE15=Amos Milburn - One Scotch, One Bourbon, One Beer
TTITLE16=Calvin Boze - Waiting and Drinking
TTITLE17=Smiley Lewis - One Night
TTITLE18=Fats Domino - Be My Guest
TTITLE19=Jewel King - 3 x 7 =21
TTITLE20=Ernie Freeman - Return to Me
EXTD=Compilation of American R'n'B tunes popular with Jamaican sound system
EXTD=s in the 1950s
EXTT0=
EXTT1=
EXTT2=
EXTT3=
EXTT4=
EXTT5=
EXTT6=
EXTT7=
EXTT8=
EXTT9=
EXTT10=
EXTT11=
EXTT12=
EXTT13=
EXTT14=
EXTT15=
EXTT16=
EXTT17=
EXTT18=
EXTT19=
EXTT20=
PLAYORDER=
